<?xml version="1.0" standalone="no"?><!DOCTYPE svg PUBLIC "-//W3C//DTD SVG 1.1//EN" "http://www.w3.org/Graphics/SVG/1.1/DTD/svg11.dtd"><svg t="1514258604455" class="icon" style="" viewBox="0 0 1024 1024" version="1.1" xmlns="http://www.w3.org/2000/svg" p-id="9856" xmlns:xlink="http://www.w3.org/1999/xlink" width="40" height="40"><defs><style type="text/css"></style></defs><path d="M512 892.717949c-94.523077 0-367.589744-338.707692-367.589744-525.128205 5.251282-202.174359 165.415385-362.338462 367.589744-367.589744 189.046154 0 341.333333 165.415385 341.333333 367.589744 0 144.410256-141.784615 362.338462-244.184615 464.738461-57.764103 57.764103-86.646154 60.389744-97.148718 60.389744z m0-840.205128c-173.292308 5.251282-312.451282 141.784615-315.076923 315.076923 0 173.292308 270.441026 467.364103 315.076923 472.615384 52.512821-5.251282 288.820513-299.323077 288.820513-472.615384s-128.65641-315.076923-288.820513-315.076923z" fill="#666666" p-id="9857"></path><path d="M512 1024c-231.05641 0-472.615385-68.266667-472.615385-183.794872 0-70.892308 105.025641-105.025641 202.174359-131.282051l13.128205 49.887179c-136.533333 36.758974-165.415385 63.015385-165.415384 78.769231 0 52.512821 168.041026 131.282051 420.102564 131.282051s420.102564-78.769231 420.102564-131.282051c0-15.753846-28.882051-44.635897-165.415385-78.769231l13.128206-49.887179c97.148718 26.25641 202.174359 60.389744 202.174359 131.282051 5.251282 115.528205-236.307692 183.794872-467.364103 183.794872zM512 525.128205c-105.025641 0-183.794872-68.266667-183.794872-157.538461 2.625641-99.774359 84.020513-181.169231 183.794872-183.794872 99.774359 2.625641 178.54359 84.020513 183.794872 183.794872 0 89.271795-78.769231 157.538462-183.794872 157.538461z m0-288.820513c-70.892308 2.625641-128.65641 60.389744-131.282051 131.282052 0 68.266667 65.641026 105.025641 131.282051 105.025641s131.282051-36.758974 131.282051-105.025641c-2.625641-70.892308-60.389744-128.65641-131.282051-131.282052z" fill="#666666" p-id="9858"></path></svg>