<?xml version="1.0" standalone="no"?><!DOCTYPE svg PUBLIC "-//W3C//DTD SVG 1.1//EN" "http://www.w3.org/Graphics/SVG/1.1/DTD/svg11.dtd"><svg t="1498883455484" class="icon" style="" viewBox="0 0 1285 1024" version="1.1" xmlns="http://www.w3.org/2000/svg" p-id="3535" xmlns:xlink="http://www.w3.org/1999/xlink" width="250.9765625" height="200"><defs><style type="text/css"></style></defs><path d="M931.295521 1024H302.342579c-51.472433 0-93.515982-41.888977-93.515982-93.515982V422.560851c0-14.375184 11.59289-26.122646 26.122646-26.122646 14.375184 0 26.122646 11.59289 26.122647 26.122646V930.484018c0 22.722065 18.548624 41.425261 41.425261 41.425262h628.952941c22.722065 0 41.425261-18.548624 41.425262-41.425262V422.560851c0-14.375184 11.59289-26.122646 26.122646-26.122646 14.375184 0 26.122646 11.59289 26.122646 26.122646V930.484018c-0.309144 51.627005-42.198121 93.515982-93.825125 93.515982z" p-id="3536" fill="#cccccc"></path><path d="M1138.112683 579.760444c-6.64659 0-13.293181-2.47315-18.548624-7.574022L610.558889 62.872108 113.919469 559.356957c-10.047172 10.047172-26.740934 10.047172-36.788106 0s-10.047172-26.740934 0-36.788105L592.164836 7.535379c10.047172-10.047172 26.740934-10.047172 36.788106 0l527.708366 527.708366c10.047172 10.047172 10.047172 26.740934 0 36.788105-5.255444 5.255444-11.747462 7.728594-18.548625 7.728594z" p-id="3537" fill="#cccccc"></path></svg>